<?xml version="1.0" encoding="UTF-8"?>
<svg xmlns="http://www.w3.org/2000/svg" viewBox="0 0 1374.55 1879.73">
  <defs>
    <style>
      .cls-1 {
        stroke-width: 7px;
      }

      .cls-1, .cls-2, .cls-3 {
        stroke: #060a37;
      }

      .cls-1, .cls-2, .cls-3, .cls-4 {
        fill: none;
      }

      .cls-1, .cls-2, .cls-3, .cls-5, .cls-6, .cls-7 {
        stroke-miterlimit: 10;
      }

      .cls-1, .cls-3, .cls-5 {
        stroke-linecap: round;
      }

      .cls-2, .cls-3, .cls-6, .cls-7 {
        stroke-width: 10px;
      }

      .cls-8 {
        fill: #fff;
      }

      .cls-9 {
        fill: #fdc5c9;
      }

      .cls-5 {
        fill: #fffff8;
        stroke: #231815;
      }

      .cls-10 {
        fill: #fdb6b8;
      }

      .cls-11 {
        fill: #ff965f;
      }

      .cls-6 {
        fill: #cefdfd;
      }

      .cls-6, .cls-7 {
        stroke: #36b2ff;
      }

      .cls-12 {
        fill: #060a37;
      }

      .cls-7 {
        fill: #2ea2ef;
      }

      .cls-13 {
        fill: #b99792;
      }

      .cls-14 {
        fill: #8e8497;
      }

      .cls-15 {
        fill: #ff965a;
      }

      .cls-16 {
        fill: #ff9b5f;
      }

      .cls-17 {
        fill: #fefefe;
      }

      .cls-18 {
        fill: #fafafa;
      }
    </style>
  </defs>
  <g id="database">
    <g id="_图层_4" data-name="图层 4">
      <path class="cls-6" d="M851.75,1185.87c165.4,0,299.5-47.78,299.5-106.72v166.48c0,58.92-134.1,106.7-299.5,106.7-165.42,0-299.5-47.78-299.5-106.7v-166.48c0,58.94,134.08,106.72,299.5,106.72Z"/>
      <path class="cls-7" d="M552.25,1079.15c0,58.94,134.08,106.72,299.5,106.72,165.4,0,299.5-47.78,299.5-106.72,0-58.92-134.1-106.7-299.5-106.7-165.42,0-299.5,47.78-299.5,106.7Z"/>
      <path class="cls-6" d="M552.25,1245.62v196.35c0,58.92,134.08,106.7,299.5,106.7,165.4,0,299.5-47.78,299.5-106.7v-196.35c0,58.92-134.1,106.7-299.5,106.7-165.42,0-299.5-47.78-299.5-106.7Z"/>
      <path class="cls-6" d="M552.25,1441.97v183.55c0,58.92,134.08,106.7,299.5,106.7,165.4,0,299.5-47.78,299.5-106.7v-183.55c0,58.92-134.1,106.7-299.5,106.7-165.42,0-299.5-47.78-299.5-106.7Z"/>
    </g>
  </g>
  <g id="fox">
    <g id="body">
      <g id="_颜色" data-name="颜色">
        <path id="_右侧黄色身形" data-name="右侧黄色身形" class="cls-11" d="M299.02,1649.5c67.31,100.17,165.92,145.56,165.92,145.56,62.61,39.13,216,79.83,298.95,76.7,82.96-3.13,95.48,4.7,194.09-20.35,84.42-21.44,118.37-42.87,139.15-57.44,33.35-40.22,38.11-97.51,38.11-97.51-40.17,39.65-84.52,45.39-84.52,45.39,49.04-42.26,42.78-92.35,42.78-92.35-82.95,49.04-127.3,26.61-127.3,26.61,78.78-41.22,80.35-100.7,80.35-100.7-70.96,13.05-101.14-21.42-101.14-21.42-83.76,24.39-200.15,49.83-295.82,39.25-4.81-.19-51.84-6.34-105.22-25.44-15.64-5.6-31.84-12.31-47.67-20.31,0,0-58.9-70.86-42.24-182.23,25.72,14.55,59.89,24.5,89.91,32.6,7.85,2.12,15.42,4.11,22.48,6.03,38.92,10.57,79.65,7.05,97.6,0,6.79-2.66,13.26-5.82,19-10.26,9.45-7.28,16.92-17.99,20.57-35.52,5.87-28.17-27-50.48-27-50.48,0,0-22.3-18.78-72.78-31.69-50.48-12.92-88.05-51.66-88.05-51.66l-24.41-25.66s30.28-44.77,52.59-46.14v-33.85c-34.66-1.16-71.63-4.35-110.74-10.11-25.22-3.72-48.83-8.62-70.85-14.38-39.47,118.61-31.91,235-24.97,289.12-70.39,56.64-97.57,178.75-38.79,266.24Z"/>
        <path id="_左侧小手" data-name="左侧小手" class="cls-16" d="M1121.29,1328.62c2.37,3.2,5.02,5.98,7.84,8.38,15.37,13.17,35.88,15.44,43.81,14.44,9.39-1.17,18.79-11.74,29.35-22.82,10.57-11.09,14.09-33.71,14.09-33.71,0,0,2.35-26.81-8.22-54.99-10.56-28.17-52.83-49.3-52.83-49.3v49.3s-21.81,9.14-27.68,13.51c-5.87,4.38-21.62,54.58-6.36,75.19Z"/>
        <path id="_右侧腹白-下" data-name="右侧腹白-下" class="cls-8" d="M494.05,1549.04c15.83,8,32.03,14.71,47.67,20.31v-169.94c-30.02-8.1-64.19-18.05-89.91-32.6-16.66,111.37,42.24,182.23,42.24,182.23Z"/>
        <path id="_右侧腹白-上" data-name="右侧腹白-上" class="cls-4" d="M490.36,1198.83l52.59,48.82v-94.96c-22.31,1.37-52.59,46.14-52.59,46.14Z"/>
        <path id="_尾巴尖端颜色" data-name="尾巴尖端颜色" class="cls-17" d="M1045.13,1576.97s-1.57,59.48-80.35,100.7c0,0,44.35,22.43,127.3-26.61,0,0,6.26,50.09-42.78,92.35,0,0,44.35-5.74,84.52-45.39,0,0-4.76,57.29-38.11,97.51,3.5-2.45,6.62-4.7,9.55-6.73,20.34-14.09,112.69-76.7,150.6-203.48,37.91-126.78-25.39-269.22-25.39-269.22,0,0-25.04,131.48-175.3,201.92,0,0-45.6,18.44-111.18,37.53,0,0,30.18,34.47,101.14,21.42Z"/>
      </g>
      <path class="cls-2" d="M542.95,1569.36v-169.94s0,169.94,0,169.94Z"/>
      <line class="cls-2" x1="542.95" y1="1249" x2="542.95" y2="1120.19"/>
      <path class="cls-12" d="M366.1,1097.27c-27.57,90.35-34.78,186.32-25.49,280.15.6,5.54,1.57,14.14,2.38,19.65.93,6.53,1.99,13.05,3.09,20.11-10.35-10.13-14.3-25.08-15.57-38.58-8.72-68.01-7.75-137.46,4.8-204.94,5.1-27,12.03-53.68,21.31-79.55l9.49,3.16h0Z"/>
    </g>
    <g id="tail">
      <g id="_尾巴轮廓" data-name="尾巴轮廓">
        <path class="cls-12" d="M339.52,1388.71c-56.82,47.01-79.8,128.56-63.27,199.54,3.67,15.24,9.24,30,16.52,43.85,7.58,13.84,16.8,26.77,26.59,39.18,39.68,49.89,90.38,91.55,147.31,120.28,42.65,25.14,90.86,39.89,138.48,52.8,50.95,12.79,103.28,23.55,155.99,22.69,9.17-.29,19.19-.61,28.31-.77,37.38-.39,74.65.26,111.38-7.34,26.82-4.99,55.34-12.18,81.62-19.72,32.48-9.54,64.82-21.12,93.86-38.64,2.69-1.55,5.24-3.31,7.76-4.89,28.1-18.78,55.86-39.44,79.05-64.15,59.3-62.05,98.88-145.64,98.45-232.33.05-11.88-.44-25.17-1.55-36.98-4.5-49.15-16.48-97.95-35.22-143.63,0,0,11.75-1.36,11.75-1.36-1.54,7.4-3.81,14.56-6.23,21.69-29.4,83.8-97.08,151.86-178.2,186.69-74.65,28.24-151.79,50.53-230.35,64.8-51.87,9.16-105.04,14.61-157.77,11.22-4.37-.38-14.45-1.33-17.52-1.57-6.15-.64-12.23-1.65-18.3-2.69-75.62-14.01-164.84-44.66-215.86-104.77,0,0-3.11-3.8-3.11-3.8-1.03-1.26-2.09-2.5-3.13-3.92-4.04-5.46-7.19-11.38-9.58-17.62-2.28-6.27-3.87-12.84-3.81-19.58,3.76,5.57,7.07,10.92,10.59,16.11,7.79,11.74,16.32,22.7,26.12,32.73,12.23,12.22,25.88,22.9,40.49,32.22,43.02,27,91.93,43.62,141.41,54.42,12.4,2.54,24.86,5.05,37.45,6.24,3.85.34,12.33,1.08,15.97,1.4,3.15.14,12.7.6,16.04.76,9.96.21,22.22.19,32.17-.14,60.94-2.31,121.48-13.4,180.58-28.23,53.95-13.71,107.25-30.45,159.13-50.64,69.02-32.07,127.7-87.79,158.24-157.97,4.94-11.29,9.22-22.88,12.33-34.79,2.41-9.74,3.23-16,5.05-24.33,7.69,17.17,15.54,36.16,21.11,53.98,19.3,60.37,29.69,124.7,22.63,188.06-9.33,76.22-47.03,147.59-99.67,202.85-21.64,23.02-47.18,42.91-73.32,60.61-41.69,29.63-91.43,45.26-140.41,58.03-30.58,7.56-61.83,14.98-93.29,17.78-25.25,2.31-50.49,1.6-75.67,2.07-9.03.3-19.03.34-28.1.73-15.97.47-32.01-.5-47.8-2.13-37.77-4-75.02-11.59-111.73-21.17-36.64-9.75-72.91-21.37-107.62-36.86-11.59-5.24-23.02-10.98-34.04-17.79,0,0,.67.36.67.36-2.65-1.25-5.02-2.48-7.48-3.76-66.85-36.38-126.14-88.9-166.6-153.65-21.05-35.84-29.64-78.37-26.16-119.65,4.72-54.76,29.26-109.02,72.47-144.04,0,0,6.27,7.79,6.27,7.79h0Z"/>
      </g>
      <path class="cls-4" d="M490.36,1200.17s30.28-44.77,52.59-46.14"/>
    </g>
    <g id="hand">
      <path class="cls-12" d="M469,1177.71c18.16,12.99,34.17,28.27,49.72,44.12,6.27,6.14,13.11,11.75,20.14,17.02,18.19,13.46,38.35,24.74,60.11,31.01,2.1.58,5.22,1.51,7.31,2.04,24.94,6.24,54.58,17.62,73.08,31.78,17.23,12.45,33.42,32.38,30.25,54.95-3.86,22.84-15.67,40.26-37.02,49.94-12.39,6.03-26.56,8.47-39.95,9.41-22.28,1.52-44.77-.33-66.35-6.05-3.8-.95-8.79-2.42-12.57-3.44-25.2-6.97-50.33-13.87-74.75-23.69-14.29-5.88-28.58-12.57-41.09-21.84-8.62-6.69-17.11-14.02-24.39-22.2-5.79-6.6-11.41-13.63-14.91-21.75,13.49,13.78,29.33,24.94,44.99,36.04,33.82,22.45,74.41,31.52,113.23,41.93,8.02,2.09,16.63,4.39,24.77,5.8,24.36,4.02,50.41,4.53,74.26-1.85,3.77-1.03,7.55-2.7,11.1-4.33,15.01-6.87,24.15-18.36,28.15-34.3,3.5-11,.46-21.45-6.53-31-10.6-14.55-26.5-24.23-42.58-31.79-13.58-6.35-28.34-11.48-42.89-15.4-.95-.25-2.85-.81-3.79-1.09-32.94-9.35-62.53-28.41-87.16-51.88-15.73-16.68-30.61-34.06-43.12-53.41h0Z"/>
      <path class="cls-2" d="M1151.04,1190.62v49.3s-21.81,9.13-27.68,13.51c-5.87,4.38-21.62,54.58-6.36,75.19,15.26,20.61,42.26,24,51.65,22.83,9.39-1.17,18.78-11.74,29.35-22.83,10.57-11.09,14.09-33.71,14.09-33.71,0,0,2.35-26.81-8.22-54.99-10.57-28.17-52.83-49.3-52.83-49.3h0Z"/>
      <polygon class="cls-12" points="1151.04 1239.92 1181.86 1244.22 1178.91 1253.77 1151.04 1239.92 1151.04 1239.92"/>
      <polygon class="cls-12" points="1111.4 1280.79 1144.78 1281.01 1112.84 1290.69 1111.4 1280.79 1111.4 1280.79"/>
      <polygon class="cls-12" points="1122.07 1332.83 1156.52 1316.1 1127.58 1341.18 1122.07 1332.83 1122.07 1332.83"/>
      <polygon class="cls-12" points="700.66 1364.27 667.39 1344.79 704.55 1355.06 700.66 1364.27 700.66 1364.27"/>
      <polygon class="cls-12" points="680.02 1399.76 642.34 1377.66 684.06 1390.61 680.02 1399.76 680.02 1399.76"/>
      <path class="cls-4" d="M495.28,1549.04s-58.9-70.86-42.24-182.23"/>
    </g>
    <g id="head">
      <g id="_颜色-2" data-name="颜色">
        <path id="_脸颊" data-name="脸颊" class="cls-8" d="M244.31,1073.17c52.88,29.86,156.44,70.59,327.87,70.46,270.58-.2,428.57-95.59,490.79-145.39,30.51-24.42,98.84-76.49,128.31-158.16,18.88-52.38,39.93-121.9,43.02-153.28-25.29,25.01-58.78,33.83-58.78,33.83,8.55-10.57,15.78-27.7,21.3-44.06,0,0-91.26-37.73-131.95-30.68-40.7,7.04-76.7,30.68-76.7,30.68,0,0-58.7-42.61-93.91-31.56-35.22,11.05-84.52,38.44-128.35,97.92,0,0-14.87,16.43-48.52,18-33.65,1.56-110.74-1.44-153.39,20.48-42.66,21.91-173.93,68.49-202.66,278.48,0,0-37.07,14.83-117.03,13.28ZM807.28,794.74c11.82,2.76,26.22,2.16,45.17-.66,40.19-5.99,56.4-51.2,56.4-51.2,0,0,20.13,17.6,47.89,15.41-.8,22.65-3.41,73.96-11.43,117.29-7.53,40.67-19.83,74.3-39.86,70.6-32.11-5.95-64.56-48.75-83.75-98.95-6.51-17.03-11.5-34.91-14.42-52.49Z"/>
        <path id="_嘴-上" data-name="嘴-上" class="cls-14" d="M807.28,794.74c2.92,17.58,7.91,35.46,14.42,52.49,49.89-7.28,101.3,16.29,123.61,28.35,8.02-43.33,10.63-94.64,11.43-117.29-27.76,2.19-47.89-15.41-47.89-15.41,0,0-16.21,45.21-56.4,51.2-18.95,2.82-33.35,3.42-45.17.66Z"/>
        <path id="_嘴-下" data-name="嘴-下" class="cls-10" d="M821.7,847.23c19.19,50.2,51.64,93,83.75,98.95,20.03,3.7,32.33-29.93,39.86-70.6-22.31-12.06-73.72-35.63-123.61-28.35Z"/>
        <path id="_右耳内" data-name="右耳内" class="cls-18" d="M250.2,683.08c20.12-110.75,79.56-179.9,103.77-204.16-21.99-27.37-153.87-184.03-280.82-171.4,0,0-33.03,215.45,177.05,375.56Z"/>
        <path id="_头-上" data-name="头-上" class="cls-16" d="M166.77,989.83c31.2,16.01,73.51,32.98,99.64,38.9l-66.3,13.54s13.63,13.64,44.2,30.9c79.96,1.55,117.03-13.28,117.03-13.28,28.73-209.99,160-256.57,202.66-278.48,42.65-21.92,119.74-18.92,153.39-20.48,33.65-1.57,48.52-18,48.52-18,43.83-59.48,93.13-86.87,128.35-97.92,35.21-11.05,93.91,31.56,93.91,31.56,0,0,36-23.64,76.7-30.68,40.69-7.05,131.95,30.68,131.95,30.68,7.68-22.75,12.06-44,12.06-44,0,0-52.16,6.77-111.13-52.15-58.99-58.92-40.94-74.16-128.2-160.79-8.61-8.56-17.38-16.64-26.28-24.27-88.45-75.8-189.99-105.63-293.01-95.65-8.78.52-17.43,1.22-25.97,2.1-78.19,8.01-146.36,30.26-200.12,59.42-43.11-28.68-113.77-67.96-208.25-94.66-164.92-46.62-191.31-19.24-197.19-19.82-16.78-1.64-60.95,261.5,196.44,490.12-.16.94-.32,1.87-.47,2.8-14.68,89.64-.64,201.67-47.93,250.16ZM250.2,683.08C40.12,522.97,73.15,307.52,73.15,307.52c126.95-12.63,258.83,144.03,280.82,171.4-24.21,24.26-83.65,93.41-103.77,204.16Z"/>
        <path id="_左耳" data-name="左耳" class="cls-15" d="M624.29,301.81c8.54-.88,17.19-1.58,25.97-2.1,103.02-9.98,204.56,19.85,293.01,95.65-11.45-39.46-38.97-112.76-100.59-194.05-91.88-121.22-144.68-127.9-163.36-135.28-16.51-6.52-56.65,126.35-55.03,235.78Z"/>
        <path id="_右耳上纹" data-name="右耳上纹" class="cls-13" d="M62.39,547.12c24.09-10.06,36.21-28.72,42.13-42.52-44.79-105.03-31.35-192.67-31.35-192.67,57.2-5.69,115.41,22.99,164.11,58.73.58-6.83-1.45-16.82-1.45-16.82,17.58,5.48,34.24-7.83,34.24-7.83,3.31-14.87-29.13-32.09-29.13-32.09,12.53,1.57,28.96-5.47,28.96-5.47.66-6.81-.63-14.11-2.82-21.09-16.17-5.8-33.23-11.32-51.14-16.38-164.92-46.62-191.31-19.24-197.19-19.82-12.07-1.18-38.3,134.58,43.64,295.96Z"/>
        <path id="_左耳上纹" data-name="左耳上纹" class="cls-13" d="M628.93,226.03c8.6-9.14,16.05-19.64,16.05-19.64,8.21,18.78,24.66,25.29,24.66,25.29,13.3-2.88,31.3-36.25,31.3-36.25,23.48,44.61,39.92,35.48,39.92,35.48,15.65-8.35,19.56-40.17,19.56-40.17,4.7,12.52,24.26,23.48,44.61,31.46,11.7,4.6,28.59-6.5,40.82-16.76-1.01-1.36-2.03-2.72-3.07-4.09-91.88-121.22-144.68-127.9-163.36-135.28-12.78-5.05-39.73,73.47-50.49,159.96Z"/>
      </g>
      <path id="_轮廓" data-name="轮廓" class="cls-2" d="M215.18,736.91c-.16.94-.32,1.87-.46,2.8-14.69,89.64-.64,201.67-47.93,250.17,31.21,16,73.51,32.98,99.64,38.89l-66.3,13.55s101.5,101.56,372.08,101.36c270.58-.2,428.57-95.59,490.78-145.39,30.52-24.43,98.84-76.49,128.32-158.16,18.88-52.38,39.93-121.9,43.02-153.28-25.29,25.01-58.77,33.83-58.77,33.83,20.43-25.25,33.36-88.06,33.36-88.06,0,0-52.16,6.77-111.14-52.16-58.98-58.92-40.94-74.16-128.2-160.79-8.61-8.55-17.38-16.64-26.28-24.27-88.46-75.81-189.99-105.64-293.01-95.66-8.78.52-17.43,1.22-25.97,2.1-78.2,8.01-146.37,30.25-200.13,59.42"/>
      <g id="_嘴" data-name="嘴">
        <path class="cls-3" d="M990.87,702.75s14.3,41.97-20.33,52.89c-34.62,10.93-61.67-12.72-61.67-12.72,0,0-16.22,45.21-56.4,51.2-40.7,6.06-60.42,1.86-78.71-23.78"/>
        <path class="cls-3" d="M956.81,756.65c-1.39,41.58-9.42,197.32-51.35,189.57-43.01-7.97-86.63-82.06-98.18-151.49"/>
      </g>
      <g id="ear">
        <path class="cls-3" d="M943.29,395.4c-11.45-39.46-38.97-112.76-100.59-194.06-91.88-121.21-144.68-127.89-163.36-135.28-16.51-6.52-56.65,126.35-55.03,235.78"/>
        <path class="cls-3" d="M473.16,398.14s-92.31-84.91-257.23-131.53c-164.92-46.62-191.31-19.23-197.19-19.81-17.95-1.76-67.26,299.62,255,537.49"/>
        <path class="cls-1" d="M263.61,693.01C38.75,532.04,73.17,307.56,73.17,307.56c139.06-13.82,284.02,175.45,284.02,175.45"/>
        <path class="cls-1" d="M174.95,394.45s48.75,42.07,67.84,46.98c19.09,4.91-36.39-4.28-60.28,4.09-23.89,8.37,72.78,60.74,80.77,62.46,7.99,1.72-47.71,4.16-46.13,21.33,1.57,17.16,48.12,34.43,55.39,36.26"/>
      </g>
      <g id="nose">
        <path id="_鼻子" data-name="鼻子" class="cls-3" d="M943.29,651.4s-70.67-25.83-104.71,32.87c0,0,2.35,29.57,71.61,36.5,0,0,33.33-16.55,33.1-69.37Z"/>
        <path class="cls-12" d="M877.73,636.77c-2.87-.36-7.1.32-10.35.97-14.95,3.34-28.78,11.13-41.42,19.62,0,0-7.02,5.03-7.02,5.03,0,0-.14.1-.14.1-4.06,2.79-8.54-2.77-4.94-6.15,16.31-14.88,34.96-29.15,56.84-34.27,2.05-.4,4.52-.82,6.62-.92,5.08-.55,9.4,3.38,8.95,8.55-.41,4.31-4.23,7.48-8.55,7.07h0Z"/>
      </g>
      <g id="eye">
        <path class="cls-12" d="M996.63,545.26c-14.91,12.05-30.94,23.84-42.82,38.71-6.61,7.88-15,16.4-14.73,27.42,0,0-13.17-4.08-13.16-4.08,1.66-4.88,4.37-9.41,7.7-13.29,15.42-17.81,43.92-25.47,66.81-23.62,9.55.76,18.85,2.86,27.42,6.42,4.9,2.04,7.22,7.66,5.18,12.56-1.56,3.74-5.2,5.98-9.02,5.92-2.21-.03-4.41-.17-6.56-.26-7.65-.28-15.29-.16-22.88.7-5.45.69-10.92,1.69-16.19,3.2-12.58,3.32-23.47,10.37-35.42,15.45-1.68.73-3.4,1.49-5.16,2.04-.11.03-.23.07-.28.02,0,0-13.56,1.47-13.56,1.47l.39-5.55c.17-2.46-.49-4.89-.52-7.39-.26-2.51-.16-5.01-.17-7.59.35-12.71,4.8-25.54,13.31-35.04,12.59-14.26,29.06-24.23,47.06-29.42,2.28-.63,4.57-1.14,6.93-1.56,7.32-1.39,12,7.55,6.8,12.76,0,0-1.14,1.13-1.14,1.13h0Z"/>
        <g id="_右眼" data-name="右眼">
          <path class="cls-12" d="M579.94,641.03c28.96-11.73,63.3-14.88,93.84-7.24,16.11,4.12,31.82,12.56,42.36,25.72,3.88,4.53,7.67,12.16,10.81,17.26,0,0-12.19,3.52-12.19,3.52-2.33.54-6.43,1.07-8.87,1.47-14.3,2.09-28.98,4.18-42.97,7.1-28.45,5.69-51.09,17.18-72.18,37.6-8.16,8.23-21.36-.82-16.68-11.34,3.63-7.96,8.46-15.41,14.28-21.95,28.44-32.31,78.99-44.96,119.64-31.62,3.36,1.13,6.51,2.41,9.71,4.03,0,0-6.98,12.44-6.98,12.44-9.51-5.42-18.47-10.03-28.58-13.56-8.62-2.94-17.6-5.46-26.69-6.79-20.33-3.12-41.66-2.45-62.32-.61,0,0-8.26.82-8.26.82l-.68.07c-10.1.82-13.48-12.91-4.24-16.91h0Z"/>
        </g>
        <ellipse class="cls-5" cx="883.77" cy="473.27" rx="33.42" ry="28.08" transform="translate(-90.82 708.22) rotate(-41.72)"/>
        <ellipse class="cls-5" cx="624.26" cy="538.32" rx="37.47" ry="27.46"/>
        <ellipse id="_腮红-左" data-name="腮红-左" class="cls-9" cx="1065.86" cy="650.11" rx="53.35" ry="24.96" transform="translate(-131.7 297.2) rotate(-14.96)"/>
        <ellipse id="_腮红-右" data-name="腮红-右" class="cls-9" cx="586.79" cy="790.05" rx="65.91" ry="32.16" transform="translate(-209.51 211.77) rotate(-17.41)"/>
      </g>
      <g id="_分割线" data-name="分割线">
        <path id="_脸线" data-name="脸线" class="cls-4" d="M189.42,601.93s91.26-37.73,131.96-30.68c40.7,7.04,76.7,30.68,76.7,30.68,0,0,58.7-42.61,93.91-31.56s84.52,38.44,128.35,97.92c0,0,14.87,16.43,48.52,18s110.74-1.43,153.39,20.48c42.65,21.91,173.92,68.49,202.65,278.48,0,0,37.08,14.83,117.04,13.29"/>
        <path id="_耳" data-name="耳" class="cls-4" d="M352.84,477.54c-26.72,29.66-88.31,108.59-94.47,211.67"/>
        <path id="_嘴-2" data-name="嘴" class="cls-4" d="M945.33,875.62c-22.31-12.06-73.72-35.63-123.61-28.35"/>
        <path id="_耳纹左3" data-name="耳纹左3" class="cls-4" d="M864.57,199.15s-36,39.45-56.35,31.47c-20.35-7.99-39.91-18.94-44.61-31.47,0,0-3.91,31.82-19.57,40.17,0,0-16.43,9.13-39.91-35.48,0,0-18,33.36-31.3,36.25,0,0-16.45-6.51-24.66-25.29,0,0-27.78,39.13-37.95,32.09"/>
        <path id="_耳纹左2" data-name="耳纹左2" class="cls-4" d="M258.37,257.07s22.37,30.52,20.02,54.78c0,0-16.43,7.04-28.96,5.48,0,0,32.43,17.22,29.13,32.09,0,0-16.66,13.3-34.24,7.83,0,0,3.49,17.22,0,21.91"/>
        <path id="_耳朵花纹左1" data-name="耳朵花纹左1" class="cls-4" d="M114.83,494.2s-7.83,54-64.96,64.96"/>
      </g>
    </g>
  </g>
</svg>